<?xml version="1.0" encoding="UTF-8"?><svg xmlns="http://www.w3.org/2000/svg" viewBox="0 0 36 36"><defs><style>.f{fill:#fff;}</style></defs><g id="a"/><g id="b"><g id="c"><g id="d" class="e"><path class="f" d="M18,0C8.06,0,0,8.06,0,18s8.06,18,18,18,18-8.06,18-18S27.94,0,18,0Zm0,33.19c-8.39,0-15.19-6.8-15.19-15.19S9.61,2.81,18,2.81s15.19,6.8,15.19,15.19-6.8,15.19-15.19,15.19Zm1.14-20.23c0-.7,.73-.86,1.06-.86h2.02v-3.08h-2.32c-3.16-.01-3.88,2.29-3.88,3.76v2.47h-2.3v3.18h2.3v8.58h3.12v-8.58h2.65l.48-3.18h-3.13v-2.29Z"/></g></g></g></svg>