<?xml version="1.0" encoding="UTF-8"?><svg xmlns="http://www.w3.org/2000/svg" viewBox="0 0 106.69 94.36"><defs><style>.d{fill:#696969;fill-rule:evenodd;}</style></defs><g id="a"/><g id="b"><g id="c"><g><path class="d" d="M94.77,9.98c-.59-.38-1.67,.52-2.08,1.07-.51,.68-.29,1.42-.93,1.94,.16,.55-.19,1.14-.64,1.5,.14,.74-.52,.92-1.22,1.51-.14,.41-.12,.65-.65,.79,.08,.36-.22,.72-.35,1.08l.14-.07,.07,.14c.27,.07,.09,.21,.36,.07,1.47-.7,1.71-2.64,2.87-3.87,.03-.17-.05-.33,.07-.5,1.41-.47,3.67-2.83,2.37-3.65Z"/><path class="d" d="M37.96,20.94c.06-.19-.06-.38-.28-.57l-.1,.17-.19-.03c-.09,.12,.42,.76,.57,.43Z"/><path class="d" d="M58.17,4.6c2.08-1.51,1.21-3.29-.14-4.58-.69,.24-1.18-.19-1.79,.07-.68,.29-1.64,1.45-1.79,2.22-.19,.99,.71,2.37,1.65,2.65,.68,.2,1.27-.5,2.08-.36Z"/><path class="d" d="M42.98,25.95c.05-.04,.09-.08,.14,0l.14-.14c-.06-.29-.45,.03-.29,.15Z"/><path class="d" d="M31.16,41.35c-.17-.19-.34-.36-.5-.22,.16,.19,.33,.36,.5,.22Z"/><path class="d" d="M31.3,41.49c.05,.21-.32,.43,.08,.65,.5,.04,.4-.9-.08-.65Z"/><path class="d" d="M78.08,10.19c1.08-.98,.94-2.25,.72-3.3-.36-.22-.71-.29-1.07-.79-.62,.11-1.51,.07-2.01,.43-1.29,.92-1.52,3.72,0,4.15,.8,.23,1.72,.08,2.37-.5Z"/><path class="d" d="M17.98,65.99c-.27,.24-.27,.48,0,.72,.16-.24,.07-.48,0-.72Z"/><path class="d" d="M60.74,24.09c-.11-.17,.08-.33-.22-.5l-.29,.29c.17,.19,.34,.36,.5,.22Z"/><path class="d" d="M38.47,49.66c.21,.22,.43,.3,.65,.22l-.07-.14,.14-.07c-.24-.35-.48-.26-.72,0Z"/><path class="d" d="M41.98,50.45c-.14-.18-.29-.25-.43-.14,.14,.11,.28,.43,.43,.14Z"/><path class="d" d="M34.96,59.62c.2-.32,.51-.19,.5-.5l-.14-.07-.07-.15c-.19-.13-.76,.29-.65,.65,.12-.14,.24-.09,.36,.07Z"/><path class="d" d="M39.9,58.4c-.08-.1-.15-.19,0-.29-.12-.13-.24-.13-.36-.07,.02,.19,.05,.55,.36,.36Z"/><path class="d" d="M69.77,27.95c.02,.14,.1,.29,.29,.43,.49-.26,.08-.95-.29-.43Z"/><path class="d" d="M33.31,68.43c-.6,.23-1,.91-.36,1.36,.68-.1,.75-.86,.36-1.36Z"/><path class="d" d="M88.97,18.14l-.08-.14c-.37-.03-.16,.44-.28,.57,.04-.05-.25-.01-.36,.07-.65,.51-1.44,1.58-1.14,1.86-.07-.07,.65,.02,.5,.07,.65-.25,1.18-1.58,1.72-2-.11-.17,.08-.34-.21-.5l-.14,.07Z"/><path class="d" d="M35.89,69.14c-.21-.09-.37,.49-.07,.36-.12-.12,.16-.24,.07-.36Z"/><path class="d" d="M85.32,22.3c.14,.18,.29,.25,.43,.14,0-.22-.24-.4-.43-.14Z"/><path class="d" d="M46.06,68.43c-.46,.02,.04,.48,0,0h0Z"/><path class="d" d="M83.38,35.12c0-.25-.3-.25-.51-.07,.17,.21,.34,.29,.51,.07Z"/><path class="d" d="M105.38,39.34c.12,.24,.29,.48,.57,.72,.24-.29,.48,.1,.72-.29,.15-.45-.27-1-.79-1.07-.33,.21-.25,.43-.5,.64Z"/><path class="d" d="M91.19,76.88l.02,.19-.17,.1c.8,.95,1.32,1.47,2.15,1.72l-.03-.19,.17-.09c-.88-.9-1.58-1.58-2.15-1.72Z"/><path class="d" d="M94.87,80.01l-.17,.1c.22,.49,.99,1.13,1.43,1,.32-.56-.92-1.23-1.29-1.29l.03,.19Z"/><path class="d" d="M105.16,67.21c.07,.1-.03,.12-.14,.14,.04,.07,.14,.14,.07,.21-.05-.04-.09-.07-.14,0,.13,.02,.61,.48,.5,.22-.3-.15,.19-.66-.29-.57Z"/><path class="d" d="M85.1,23.51c-.34-.08-.34-.31-.57-.14-.51,.51-.54,1.02-.93,1.37,.07-.04,.12-.04,.07,.06-1.56,1.19-3.06,3.45-5.02,4.01-.92-.57-1.78-.17-2.65,.07-.26,.08-.58-.01-.79,.07-.14,.06-.22,.29-.36,.36-.12,.06-.33-.05-.43,0-.23,.12-.53,.34-.79,.5-.6,.39-1.41,.94-2.07,1.36-1.2,.76-1.93,1.35-2.86,.43-.29-.21,.07-.43-.22-.64-.65-.42-.86-1.06-1-1.72-.05-.21-.1-.48-.14-.71-.24-1.07-.16-1.8-.15-2.73,.01-.36-.13-.76-.14-1.15-.02-.56,.14-1.14,.07-1.65-.09-.67-.57-1.24-.21-1.93-.42-.5-.33-1-.36-1.51-.28-.28-.29-.57-.57-.86-.04-2.15-.41-4.3-.14-6.45-.17-.17-.09-.34-.36-.51,.19-.2,.26-.02,.28-.28-.2-.28-.06-.57-.28-.85,.13-1,.55-1.88,.79-2.8,.09-.38-.08-.85,.28-1.15-.34-.11-.03-.31-.07-.5-.14-.64-.72-1.21-.86-1.86-.35-.15-.72-.35-1.07-.22-.44,.34-.49,.67-.86,1,.08,.45,.03,.91-.07,1.36,.17,.17,.09,.34,.36,.5,.08,1.6-.03,3.2,.21,4.8-.13,.12-.2,.24-.21,.36-.05,.37,.2,.74,.14,1.15-.02,.13-.21,.23-.22,.36,0,.17,.2,.3,.22,.5,.01,.16-.15,.41-.14,.57,0,.35,.09,.71,.07,1.07-.04,.59-.28,1.16-.22,1.65,.04,.25,.29,.38,.36,.65,.13,.48,.07,1.2,.07,1.79,.01,1.5-.19,3.05,.72,4.44,.14,.2,.29-.37,.43,0-.23,.38,.12,.65,.15,1,.04,.76-.4,1.46-.51,2.22-.41,.48-.81,.67-1.21,.93-1.32-.49-2.6,.1-3.8-.36-.35-.14-.92-.45-1.29-.72-.47-.34-.49-.75-.72-1-.98-1.11-2.64-1.72-3.72-2.58,0-.34-.25-.67,.14-1.01-.66-.29-.52-1.06-.71-1.57-1.5-1.49-.03-3.56-2.15-4.59-1.62,.57-1.09,2.49,.43,3.72,.27,1.17,1.16,2.34,.36,3.51-2-.08-3.57,2.18-4.22,3.79,.48,2.13,1.01,4.25,1.5,6.37-.36,1.39-.8,3.25-2.57,4.01-.94-.14-1.38,.08-2.01-.14-.93-.33-2.03-1.49-2.72-2.43-1-1.37-1.32-3.19-2.29-4.45-1.09-1.4-3.23-2.48-3.66-.65-.28,1.21,2.07,3.07,2.8,3.94,.62,.76,1.4,2.64,1.79,3.23,.78,1.16,1.94,2.04,1.93,2.94-.33,.91-.17,1.81-.14,2.72,.68,.74,.7,1.49,.79,2.23l.35,.35c-.05,.29,.11,.59,.15,.86,.13,.87,.06,1.68,.07,2.5-.14,.48-.43,.96-.58,1.43-.12-.13-.24-.13-.36-.07,.06,.31,.34,.17,.29,.43-.42-.07,.24,.5-.29,.29,.35,.3,.4,.75,.29,1.29-.06,.31-.38,.71-.57,1.29-.44,1.29-.26,3.1-1.43,3.87-.21,.81-.7,1.67-1.43,2.43-.1,.11-.34,.17-.43,.29-.31,.41-.4,.89-.79,1.22-.65,.56-1.75,.81-2.36,.79-1.48,.98-2.63,.94-4.02,1.72-.69-.12-1.38,.24-2.08,.79-.31-.13-.62,.08-.93-.07-.79,.47-1.58,.63-2.36,.5-.48,.58-.95,0-1.43,.57-1.55,0-3.11,.62-4.66,.65-.21,.19-.43,.16-.64,.35-.55-.36-.66,.27-1.22-.07-.07,.27-.76,.31-1.08,.22,.04-.04,.02-.14-.07-.07-.36,.44-1.34,.07-1.93,.79-1.91,.12-3.88,1.02-5.59,.86-.31,.15-.17,.16-.43,.43-.12-.13-.24-.21-.36-.21-.56,.34-1.24,.51-1.72,.57-.13,.02-.32-.01-.43,0-1.5,.17-2.87,.76-4.23,.36-1.11,.19-2.4,.51-3.3,2.01,.15,.38,.06,.66,.36,.93,.17,.15,1.41,.46,2.01,.43,.38-.02,.49-.26,.86-.43,.29-.14,.63-.1,.79-.21,.29-.22,.43-.67,.71-.86,.79-.54,1.92-.19,2.37-.79,.02,.31,.1,.06,.29,.14,.72-.32,1.43-.71,2.15-.43,1.58-.63,3.18-.4,4.58-1.15,.79,.11,1.51-.22,2.44-.57,.74,0,1.85,.07,2.36-.5,.45,.55,1.48-.12,2.15,.14,.17-.17,.34-.09,.5-.36,.65,.07,1.29,.02,1.94-.36,.32,.26,.53-.02,.79-.07,.12-.02,.26,.11,.36,.07,.21-.07,.25-.26,.43-.29,.34-.05,.7,.17,.94-.07-.05,.07,1.08-.59,1.5-.07,.74-.73,1.48-.24,2.22-.64,.15,.2,.74,.42,1.15,.43,.18,0,.34-.19,.5-.21,.25-.05,.23,.38,.36-.08,.17,.19,.34,.11,.5,.21,.27,0,.19-.17,.36-.36,1.19,.18,2.72-.12,4.08-.79,.17-.08,.26-.34,.43-.43,.11-.05,.53-.13,.79-.21,.29-.1,.66-.26,.86-.29,.27-.04,.63,.19,.86,.15,.24-.05,.03-.28,.29-.29,.06,0,.04,.2,.07,.21,.17,.09,.64-.25,.79-.07,.65,.33,1.29,.69,1.94,.65-.12,.31,.52,.22,.43,.57,1.02-.2,1.65,.29,2.58,1.14-.1,.17-.53,.09-.21,.36,.29-.28,.03,.04,.14,.14,.28,.24,.97,.45,.86,1-.02,.11-.25-.07-.29,0,.19,.23,.39,.11,.57,.14-.09,.22,0,.36,0,.72,.44-.23,.25,.13,.57-.14,.19,.37,.38-.04,.58,.14,.14,.45,.71,.34,1.21,.64-.58,.19,.47,.45,.07,.94,.32-.35,.18-.02,.5,.07-.33,.02,0,.31,0,.43,.04,.53-.4,1.36-.79,1.93-.72,1.09-1.9,2.01-2,3.01-1.27,1.17-2.01,2.61-2.8,3.8-.08,.22,.31,.43,.07,.64-.49,.53-.9,.66-1.22,1.22-2.04,.17-1.69,2.97-3.65,3.79-.21,.8-.8,1.83-1.5,2.79-.55,.75-1.3,1.99-.79,2.66,.57,.73,1.38,.36,1.86-.29,.06-.08,.14-.52,.22-.79,.25-.88,.75-1.86,1.57-2.15-.1-.42,.32-.56,.5-.93,.06-.13-.09-.22,0-.43,.34-.74,1.48-2.05,1.79-2.65,.27-.54,.67-.61,.93-.79,.77-.53,.99-1.41,1.5-2.08,.14-.18,.42-.25,.57-.43,.02-.02,0-.24,.07-.36,.22-.33,.77-.59,1.15-1,.45-.49,.85-1.27,1.51-1.79,.81-.64,1.41-1.3,1.79-2.22,.19-.14,.38-.15,.57-.43,.06-.61,.76-1.31,1.29-1.72,.74,.39,1.18,.68,1.72,1.01-.2-.04-.14,.18-.15,.28-.02,.48,.1,.46,.22,.65,.02,.04-.08,.3-.07,.35,0,.02-.2,.65-.36,1.22,.35,.44,.5,.7,.65,1.22,.32,1.12,.21,2,.07,2.94-.11,.77-.23,1.62-.36,2.22-.12,.57-.27,1.27-.43,1.72-.04,.11-.24,.17-.29,.29-.31,.79-.55,1.83-1.07,2.51,.07,1-.26,2.01-1.29,3.01,.03,1-1.27,2.56-.21,3.23,1.01,.64,1.72-1.11,2.43-2.01,0-.67-.16-1.34-.15-2.01,.47-.9,0-2.13,1.08-2.79-.23-.69,.59-1.43,.79-1.93,.12,.11,.24,.26,.36,.07-.15-.62,.2-1.13,.29-1.72,.06-.46-.07-.97,0-1.44,.19-1.33,.69-2.12,1.51-3.36,.48-.74,.83-1.43,1.72-2,.43,.03,1.07,0,1.29-.15,.4-.03,.81,.28,1.22,.07,.69,.38,1.76,.23,2.65,1.07,.5-.12,1-.13,1.51,.22,.27-.14,.61-.07,.93-.07,.15,0,.88,.08,.93,.07,.47-.13,.88-.69,1.43-1,.32-.18,.67-.19,.93-.35,.39-.26,.7-.69,1.07-.93,.47-.31,1.03-.39,1.29-.86,.64,.19,1.1-.13,1.72,0,1.06,.23,1.88,1.42,3.01,2.01,.37,.19,.81,.17,1.14,.28,.44,.16,.77,.44,1.22,.51,.64,1.05,1.72,2.1,1.86,3.15,.81,1.16,1.98,1.97,3.15,1.86,2.58-2.24-.49-4.71-2.65-6.38-.11-.64-.24-1.29-.36-1.93,.47-.81-.1-1.62,.57-2.43,.28-.2,.57,.11,.86,.43,.71,.4,1.43,.49,2.15,.86,.57-.15,1.14,.13,1.72,.14,.26,.53,1.08,.96,1.58,1.15,.21-.13,.43-.22,.64-.5,1.28,.35,3.12,.47,3.94,1.65-.22,0-.4,.24-.14,.43,.15-.07,.29-.46,.43-.29,.77,.67,1.74,1.04,2.51,1.65,.51,.4,.83,1,1.36,1.36,.41,.28,1.04,.37,1.51,.65,.89,.53,1.54,1.39,2.22,1.5,.75,1.32,3.42,4.58,4.08,2.22-.95-.97-.85-2.14-2.15-2.72-.32-.14-.87-.01-1.22-.21-.71-.4-1.22-1.36-2.01-1.86-1.24-.8-2.16-.91-3.01-1.86-.34-.38-.42-.9-.79-1.36-.58-.74-1.36-1.3-2.29-1.29-1.9-1-4.32-2.03-6.45-3.87,.17-1.34,2.09-.87,2.37-2.21,1.87-.44,3.76,2.01,5.45,3.01,.26-.1,.52-.32,.78-.5,.02-.36-.11-.72-.36-1.07-.64,.12-.95-.48-1.65-.93-.47-.31-1.12-.53-1.58-.86-1.27-.93-3.11-1.67-3.65-2.51-.56-.87,.16-1.84,.93-1.93,.82,.57,1.86,3.12,3.08,2.08,.26-.89-.4-1.26-1-1.86-1.03-1.02-1.27-2.35-1.51-3.23-.08-.29-.29-.52-.36-.78-.08-.3,0-.65-.07-.93-.18-.66-.86-1.42-.14-2,.26-.12,.52,.34,.79,.07-.06-.19,.07-.38,.14-.57,.6-.44,.43-1.47,.72-2.15,.24,.08,.47-.47,.72-.29,.6,.21,1.12,1.8,1.58,1.58,.81-.48-.92-1.57-.86-2.29,.45-.09,.74-.68,.72-1,.65-.3,.71-.9,1.07-1.36,.28-.35,.65-.62,.93-.93,.6-.68,.8-1.23,1.22-1.79,.52-.7,1.37-1.28,1.79-2.08,.16-.32-.08-.72,.36-.93-.23-.78-.07-1.45-.57-2.15-.62-.85-1.21-.77-1.72-1.15-1.15-.86-1.25-2.66-2.5-3.51-.75-.51-1.91-.19-2.8-.51-.43-.15-.8-.49-1.15-.57-1.47-.35-3.14,.4-4.37-.36,.19-.56,1.28-1.39,.29-1.72-.66,.71-1.46,1.65-2.29,1.29-.25-.38,.24-.76-.43-1.15-.29,.17,.14,.33-.07,.5-.83,.06-1.58,.35-2.08-.5-.28-.47,.24-1.23,.28-1.72,.03-.22-.11-.45-.07-.64,.09-.43,.44-.78,.36-1.08,.15-.02,.29-.1,.43-.29,.02-.52-.41-.6-.35-1.07,.3-.03,.55-.84,1-.86-.19-1.05,1.26-2.1,1.43-3.15l.15-.15-.08-.14c.25,.04,.43-.2,.43-.43l-.33,.33c-.21-.17,.09-.23,.19-.26l.14-.07,.07,.15c.4-.36,.23-.72,.5-1.08,.34,0,.91-.52,.93-.93l-.19,.02-.1-.16-.14,.14Zm-37.39,53.73c-.11-.28,.53-1.26,.93-1.08-.52,.52-.51,.65-.93,1.08Z"/><path class="d" d="M41.19,50.23c.1,.06,.19,.03,.28,0-.16-.27-.33,.16-.5-.21-.33,.26,.06,.44,.28,.43-.04-.07-.14-.14-.07-.21Z"/><path class="d" d="M42.91,50.52c-.29-.02-.58-.35-.86-.14,.29,.27,.57,.25,.86,.14Z"/><path class="d" d="M87.32,20.58c-.17,.21-.34,.03-.5-.07-.06,.39-.23,.41-.43,.72,.06,.26,.45,.08,.28,.28-.19,.16-.22,.24-.09,.27l-.52,.12c.08,.11,.08,.3,.24,.35,.25-.07,.41-.3,.51-.53l.07,.15c.34-.43,.52-.86,.43-1.29Z"/><path class="d" d="M37.58,20.53c-.47-.65-1.01-1.25-1.53-1.85l1.53,1.85Z"/><path class="d" d="M56.02,6.4c.3,.33,.64,.62,.97,.91l-.97-.91Z"/><path class="d" d="M29.73,40.85l-.32-.11c.06,.04,.15,.07,.25,.13,.02-.01,.04-.02,.07-.03Z"/><path class="d" d="M40.11,50.02l-.84-.22c.28,.12,.51,.34,.84,.22Z"/><path class="d" d="M35.32,59.04c1.22-.17,2.42-.37,3.58-.72l-3.58,.72Z"/><path class="d" d="M94.87,80.01l-.84-.65c.26,.23,.52,.46,.84,.65Z"/><path class="d" d="M94.03,79.36c-.26-.23-.53-.47-.86-.67l.86,.67Z"/><path class="d" d="M91.11,76.99l-.52-.43c.09,.22,.34,.3,.52,.43Z"/><path class="d" d="M85.34,23.53l.71-.75c-.27,.25-.74,.27-.71,.75Z"/></g></g></g></svg>