<?xml version="1.0" encoding="UTF-8"?><svg xmlns="http://www.w3.org/2000/svg" viewBox="0 0 204.01 204.01"><defs><style>.d{fill:#fff;}.e{fill:#b2b2b2;}</style></defs><g id="a"/><g id="b"><g id="c"><g><path class="d" d="M0,51.3V0c68,0,136.01,0,204.01,0V204.01c-68,0-136.01,0-204.01,0,0-50.77,0-101.54,0-152.31,.6,.47,1.26,.88,1.8,1.42,32.77,32.75,65.53,65.51,98.27,98.29,.55,.55,.81,1.37,1.04,1.78,34.33-34.33,68.09-68.09,101.89-101.89H0Z"/><path class="e" d="M0,51.3H203c-33.8,33.8-67.56,67.56-101.89,101.89-.23-.41-.49-1.24-1.04-1.78C67.33,118.63,34.57,85.87,1.8,53.12,1.26,52.58,.6,52.17,0,51.7v-.4Z"/></g></g></g></svg>